<svg aria-hidden="true" style="position: absolute; width: 0; height: 0; overflow: hidden;" version="1.1" xmlns="http://www.w3.org/2000/svg" xmlns:xlink="http://www.w3.org/1999/xlink">
<defs>
<symbol id="logo" viewBox="0 0 63 32">
<path d="M19.698 24.021c-0.576-1.602-1.762-2.403-3.557-2.404h-0.568v9.881h0.568c1.387 0 2.411-0.547 3.073-1.641 0.556-0.933 0.835-2.121 0.835-3.564-0.002-0.857-0.119-1.614-0.351-2.271zM9.975 24.138c0.578 1.602 1.763 2.403 3.557 2.403h0.567v-9.881h-0.567c-1.387 0-2.411 0.547-3.073 1.641-0.554 0.933-0.832 2.121-0.833 3.564 0 0.857 0.117 1.614 0.349 2.272zM0.547 0.882h7.539v2.617h-4.834v1.308h4.015v2.484h-4.015v1.323h4.833v2.617h-7.538v-10.348zM11.876 0.868h9.755l-4.877 10.571-4.877-10.571zM16.754 10.132l4.029-8.713h-8.043l4.014 8.712zM25.526 0.881h7.539v2.617h-4.833v1.309h4.015v2.482h-4.015v1.323h4.833v2.617h-7.539v-10.347zM37.703 11.214v-10.347h0.58l7.226 7.033v-7.032h0.55v10.348l-8.356-0.002zM53.955 11.229v-7.732h-3.911v-2.617h8.356v2.617h-3.91v7.732h-0.535zM4.992 18.723c0.654 0 1.175 0.099 1.561 0.297 0.87 0.431 1.458 1.313 1.458 2.333 0 0.016-0 0.032-0 0.048l0-0.002c0.003 0.475-0.131 0.942-0.386 1.345-0.262 0.413-0.619 0.743-1.041 0.967l-0.015 0.007c0.537 0.189 1.006 0.53 1.352 0.981 0.361 0.446 0.554 1.003 0.551 1.576 0.003 0.501-0.133 0.993-0.394 1.42-0.26 0.426-0.614 0.77-1.035 1.010l-0.014 0.007c-0.228 0.124-0.475 0.214-0.728 0.268-0.268 0.059-0.625 0.089-1.070 0.089h-4.58v-10.347h4.342zM22.426 28.321c-0.778-0.679-1.162-1.698-1.153-3.055h2.424c-0.010 0.565 0.159 0.996 0.506 1.293s0.833 0.446 1.458 0.446c0.515 0 0.922-0.085 1.218-0.253 0.268-0.142 0.448-0.418 0.448-0.737 0-0.013-0-0.026-0.001-0.039l0 0.002c0-0.287-0.152-0.495-0.454-0.623-0.289-0.124-0.589-0.217-0.898-0.276 0.124 0.014-0.063-0.021-0.25-0.054l-0.301-0.045c-0.759-0.142-1.422-0.331-2.060-0.572l0.082 0.027c-0.556-0.211-1.025-0.541-1.393-0.962l-0.003-0.004c-0.377-0.436-0.566-1.012-0.566-1.724 0-0.714 0.189-1.321 0.566-1.822 0.385-0.502 0.896-0.888 1.486-1.115l0.023-0.008c0.594-0.235 1.282-0.372 2.002-0.372 0.020 0 0.040 0 0.059 0l-0.003-0c0.902 0 1.683 0.168 2.342 0.506 0.66 0.337 1.177 0.846 1.554 1.531 0.175 0.289 0.291 0.61 0.342 0.945 0.039 0.293 0.060 0.588 0.060 0.885h-2.423c0-0.535-0.143-0.929-0.43-1.182-0.288-0.253-0.734-0.379-1.339-0.379-0.485 0-0.862 0.084-1.13 0.253-0.267 0.168-0.401 0.396-0.401 0.683 0 0.317 0.179 0.55 0.535 0.699 0.439 0.173 0.892 0.308 1.352 0.403 0.893 0.178 1.59 0.348 2.090 0.512 0.505 0.166 0.954 0.468 1.301 0.87 0.366 0.416 0.55 1.001 0.55 1.755 0 0.712-0.198 1.327-0.595 1.843-0.396 0.516-0.919 0.909-1.569 1.183-0.608 0.259-1.315 0.409-2.058 0.409-0.016 0-0.032-0-0.049-0l0.002 0c-1.437-0.002-2.545-0.343-3.324-1.022zM36.113 29.071v-7.732h-3.911v-2.617h8.356v2.617h-3.91v7.732h-0.535zM43.368 18.723h7.539v2.617h-4.833v1.308h4.015v2.484h-4.015v1.323h4.833v2.617h-7.539v-10.348zM62.072 29.071h-7.955v-10.348h4.030c0.862 0 1.566 0.154 2.111 0.46 0.525 0.289 0.949 0.703 1.241 1.204l0.008 0.015c0.299 0.52 0.452 1.111 0.446 1.71 0 0.009 0 0.020 0 0.032 0 0.775-0.269 1.488-0.718 2.050l0.005-0.006c-0.444 0.58-1.062 1.008-1.776 1.205l-0.024 0.006 2.632 3.673zM54.667 19.629v5.338h3.821l-3.821-5.337zM54.667 28.521h6.364l-2.171-3.018-0.46 0.014h-3.733v3.004zM55.054 19.272l4.044 5.651c0.67-0.137 1.24-0.494 1.645-0.991l0.004-0.005c0.429-0.506 0.662-1.15 0.654-1.814 0-0.010 0-0.021 0-0.032 0-0.537-0.149-1.039-0.409-1.467l0.007 0.013c-0.27-0.445-0.655-0.797-1.114-1.019l-0.016-0.007c-0.437-0.219-1.006-0.327-1.71-0.327h-3.107z"></path>
</symbol>
<symbol id="icon-close" viewBox="0 0 32 32">
<path d="M31.708 25.708c-0-0-0-0-0-0l-9.708-9.708 9.708-9.708c0-0 0-0 0-0 0.105-0.105 0.18-0.227 0.229-0.357 0.133-0.356 0.057-0.771-0.229-1.057l-4.586-4.586c-0.286-0.286-0.702-0.361-1.057-0.229-0.13 0.048-0.252 0.124-0.357 0.228 0 0-0 0-0 0l-9.708 9.708-9.708-9.708c-0-0-0-0-0-0-0.105-0.104-0.227-0.18-0.357-0.228-0.356-0.133-0.771-0.057-1.057 0.229l-4.586 4.586c-0.286 0.286-0.361 0.702-0.229 1.057 0.049 0.13 0.124 0.252 0.229 0.357 0 0 0 0 0 0l9.708 9.708-9.708 9.708c-0 0-0 0-0 0-0.104 0.105-0.18 0.227-0.229 0.357-0.133 0.355-0.057 0.771 0.229 1.057l4.586 4.586c0.286 0.286 0.702 0.361 1.057 0.229 0.13-0.049 0.252-0.124 0.357-0.229 0-0 0-0 0-0l9.708-9.708 9.708 9.708c0 0 0 0 0 0 0.105 0.105 0.227 0.18 0.357 0.229 0.356 0.133 0.771 0.057 1.057-0.229l4.586-4.586c0.286-0.286 0.362-0.702 0.229-1.057-0.049-0.13-0.124-0.252-0.229-0.357z"></path>
</symbol>
<symbol id="icon-location" viewBox="0 0 32 32">
<path d="M16 0c-5.523 0-10 4.477-10 10 0 10 10 22 10 22s10-12 10-22c0-5.523-4.477-10-10-10zM16 16.125c-3.383 0-6.125-2.742-6.125-6.125s2.742-6.125 6.125-6.125 6.125 2.742 6.125 6.125-2.742 6.125-6.125 6.125zM12.125 10c0-2.14 1.735-3.875 3.875-3.875s3.875 1.735 3.875 3.875c0 2.14-1.735 3.875-3.875 3.875s-3.875-1.735-3.875-3.875z"></path>
</symbol>
</defs>
</svg>
